<?xml version="1.0" encoding="UTF-8"?>
<svg width="32px" height="32px" viewBox="0 0 32 32" version="1.1" xmlns="http://www.w3.org/2000/svg">
    <circle fill="#2563EB" cx="16" cy="16" r="16"/>
    <path fill="white" d="M16,8 C18.7614237,8 21,10.2385763 21,13 C21,14.6568542 20.1571453,16.1565519 18.8777376,17.1280373 C20.7485810,18.2000908 22,20.2146451 22,22.5 L20,22.5 C20,20.0147186 17.9852814,18 15.5,18 C13.0147186,18 11,20.0147186 11,22.5 L9,22.5 C9,20.2146451 10.2514190,18.2000908 12.1222624,17.1280373 C10.8428547,16.1565519 10,14.6568542 10,13 C10,10.2385763 12.2385763,8 15,8 L16,8 Z M16,10 L15,10 C13.3431458,10 12,11.3431458 12,13 C12,14.6568542 13.3431458,16 15,16 L16,16 C17.6568542,16 19,14.6568542 19,13 C19,11.3431458 17.6568542,10 16,10 Z"/>
</svg>
